<?xml version="1.0" encoding="UTF-8"?>
<!DOCTYPE svg PUBLIC "-//W3C//DTD SVG 1.1//EN" "http://www.w3.org/Graphics/SVG/1.1/DTD/svg11.dtd">
<!-- Creator: CorelDRAW -->
<svg xmlns="http://www.w3.org/2000/svg" xml:space="preserve" width="6.82666in" height="6.82666in" style="shape-rendering:geometricPrecision; text-rendering:geometricPrecision; image-rendering:optimizeQuality; fill-rule:evenodd; clip-rule:evenodd"
viewBox="0 0 6.82666 6.82666"
 xmlns:xlink="http://www.w3.org/1999/xlink">
 <defs>
  <style type="text/css">
   <![CDATA[
    .fil5 {fill:none}
    .fil3 {fill:#4527A0}
    .fil1 {fill:#512DA8}
    .fil0 {fill:#D84315}
    .fil2 {fill:#E64A19}
    .fil4 {fill:#263238;fill-rule:nonzero}
   ]]>
  </style>
 </defs>
 <g id="Layer_x0020_1">
  <metadata id="CorelCorpID_0Corel-Layer"/>
  <path class="fil0" d="M1.41745 2.57107l-0.0693583 0.25885c-0.0254331,0.0949055 0.0314134,0.19337 0.126323,0.218799l2.9882 0.800685c0.0949094,0.0254331 0.19337,-0.0314134 0.218803,-0.126323l0.115594 -0.431413 0.115598 -0.431417c0.0254291,-0.0949094 -0.0314134,-0.193366 -0.126327,-0.218799l-2.9882 -0.800685c-0.0949094,-0.0254331 -0.19337,0.0314134 -0.218799,0.126323l-0.161835 0.60398z"/>
  <path class="fil1" d="M1.8243 1.57036l-0.225244 -0.0603543 -0.473354 1.76658 0.225244 0.0603543c0.0474606,0.0127165 0.096685,-0.0157047 0.109402,-0.0631614l0.427114 -1.59402c0.0127165,-0.0474567 -0.0157047,-0.0966811 -0.0631614,-0.109398z"/>
  <path class="fil2" d="M4.78629 2.64145l-2.9882 -0.800685c-0.0949094,-0.0254331 -0.19337,0.0314134 -0.218799,0.126323l-0.161835 0.60398c0.0254291,-0.0949055 0.123886,-0.151756 0.218799,-0.126327l3.16076 0.846925 0.115598 -0.431417c0.0254291,-0.0949094 -0.0314134,-0.193366 -0.126327,-0.218799z"/>
  <path class="fil0" d="M1.41745 2.57107l-0.0693583 0.25885c-0.0254331,0.0949055 0.0314134,0.19337 0.126323,0.218799l2.9882 0.800685c0.0949094,0.0254331 0.19337,-0.0314134 0.218803,-0.126323l0.115594 -0.431413 -3.16076 -0.846925c-0.0949134,-0.0254291 -0.19337,0.0314213 -0.218799,0.126327z"/>
  <path class="fil3" d="M1.59905 1.51l-0.206169 -0.0552441c-0.0474606,-0.0127165 -0.096685,0.0157047 -0.109402,0.0631614l-0.427114 1.59402c-0.0127165,0.0474567 0.0157047,0.0966811 0.0631614,0.109398l0.206169 0.0552441 0.473354 -1.76658z"/>
  <path class="fil1" d="M1.8243 1.57036l-0.225244 -0.0603543 -0.473354 1.76658 0.225244 0.0603543c0.0474606,0.0127165 0.096685,-0.0157047 0.109402,-0.0631614l0.427114 -1.59402c0.0127165,-0.0474567 -0.0157047,-0.0966811 -0.0631614,-0.109398z"/>
  <path class="fil3" d="M5.20861 3.48122l-0.0297244 0.110937c-0.0108976,0.0406772 -0.00373622,0.0782638 0.0159173,0.0835315l0.618791 0.165803c0.0196535,0.00526772 0.0446535,-0.0237047 0.0555512,-0.064378l0.0495433 -0.184894 0.0495394 -0.18489c0.0109016,-0.0406772 0.00373622,-0.0782638 -0.0159173,-0.0835315l-0.618791 -0.165807c-0.0196535,-0.00526378 -0.0446496,0.0237087 -0.0555512,0.0643819l-0.0693583 0.258846z"/>
  <path class="fil3" d="M1.59905 1.51l-0.206169 -0.0552441c-0.0474606,-0.0127165 -0.096685,0.0157047 -0.109402,0.0631614l-0.427114 1.59402c-0.0127165,0.0474567 0.0157047,0.0966811 0.0631614,0.109398l0.206169 0.0552441 0.473354 -1.76658z"/>
  <path class="fil1" d="M5.95231 3.3238l-0.618791 -0.165807c-0.0196535,-0.00526378 -0.0446496,0.0237087 -0.0555512,0.0643819l-0.0693583 0.258846c0.0109016,-0.0406732 0.0358976,-0.0696457 0.0555512,-0.064378l0.654528 0.175378 0.0495394 -0.18489c0.0109016,-0.0406772 0.00373622,-0.0782638 -0.0159173,-0.0835315z"/>
  <path class="fil3" d="M5.20861 3.48122l-0.0297244 0.110937c-0.0108976,0.0406772 -0.00373622,0.0782638 0.0159173,0.0835315l0.618791 0.165803c0.0196535,0.00526772 0.0446535,-0.0237047 0.0555512,-0.064378l0.0495433 -0.184894 -0.654528 -0.175378c-0.0196535,-0.00526772 -0.0446496,0.0237047 -0.0555512,0.064378z"/>
  <path class="fil0" d="M4.85027 3.43804l-0.0495394 0.184894c-0.0181654,0.0677913 -0.0227835,0.126004 -0.0102638,0.129358l0.394165 0.105614c0.0125197,0.00335433 0.037626,-0.0493622 0.0557913,-0.117157l0.0825669 -0.30815 0.0825709 -0.308154c0.0181654,-0.0677913 0.0227835,-0.126004 0.0102638,-0.129358l-0.394169 -0.105614c-0.0125197,-0.00335433 -0.037622,0.0493661 -0.0557874,0.117157l-0.115598 0.431409z"/>
  <path class="fil1" d="M5.10113 2.57447l-0.109067 -0.0292244 -0.0998268 -0.026748c-0.0229803,-0.00615748 -0.0505551,0.0215591 -0.0612835,0.0615945l-0.360331 1.34478c-0.0107283,0.0400354 -0.000708661,0.0778268 0.0222717,0.0839843l0.0998307 0.026748 0.109067 0.0292244c0.0229764,0.00615748 0.0505512,-0.0215591 0.0612795,-0.0615945l0.360331 -1.34478c0.0107283,-0.0400354 0.000708661,-0.0778268 -0.0222717,-0.0839843z"/>
  <path class="fil2" d="M5.41583 2.99509l-0.394169 -0.105614c-0.0125197,-0.00335433 -0.037622,0.0493661 -0.0557874,0.117157l-0.115598 0.431409c0.0181654,-0.0677874 0.0432717,-0.120512 0.0557913,-0.117157l0.416929 0.111717 0.0825709 -0.308154c0.0181654,-0.0677913 0.0227835,-0.126004 0.0102638,-0.129358z"/>
  <path class="fil0" d="M4.85027 3.43804l-0.0495394 0.184894c-0.0181654,0.0677913 -0.0227835,0.126004 -0.0102638,0.129358l0.394165 0.105614c0.0125197,0.00335433 0.037626,-0.0493622 0.0557913,-0.117157l0.0825669 -0.30815 -0.416929 -0.111717c-0.0125197,-0.00335433 -0.037626,0.0493701 -0.0557913,0.117157z"/>
  <path class="fil1" d="M5.10113 2.57447l-0.109067 -0.0292244 -0.399339 1.49036 0.109067 0.0292244c0.0229764,0.00615748 0.0505512,-0.0215591 0.0612795,-0.0615945l0.360331 -1.34478c0.0107283,-0.0400354 0.000708661,-0.0778268 -0.0222717,-0.0839843z"/>
  <path class="fil3" d="M4.99207 2.54525l-0.0998268 -0.026748c-0.0229803,-0.00615748 -0.0505551,0.0215591 -0.0612835,0.0615945l-0.360331 1.34478c-0.0107283,0.0400354 -0.000708661,0.0778268 0.0222717,0.0839843l0.0998307 0.026748 0.399339 -1.49036z"/>
  <g id="_311086400">
   <path id="_311087072" class="fil4" d="M3.38881 3.76123c-0.020748,-0.0454173 -0.000751969,-0.0990669 0.0446693,-0.119815 0.0454213,-0.020752 0.0990669,-0.000755906 0.119819,0.0446654l0.71448 1.56084c0.020752,0.0454213 0.000755906,0.0990669 -0.0446654,0.119819 -0.0454213,0.020748 -0.0990669,0.000751969 -0.119819,-0.0446693l-0.714484 -1.56084z"/>
   <path id="_311086976" class="fil4" d="M3.15459 3.68608c0.020748,-0.0454213 0.0743976,-0.0654173 0.119819,-0.0446654 0.0454173,0.020748 0.0654173,0.0743976 0.0446654,0.119815l-0.71448 1.56084c-0.020752,0.0454213 -0.0743976,0.0654173 -0.119819,0.0446693 -0.0454213,-0.020752 -0.0654173,-0.0743976 -0.0446654,-0.119819l0.71448 -1.56084z"/>
   <path id="_311086688" class="fil4" d="M3.36935 3.18795c-0.0829921,0 -0.158138,0.0336457 -0.212535,0.0880433 -0.0544016,0.0544016 -0.0880472,0.129547 -0.0880472,0.212539 0,0.0829921 0.0336457,0.158142 0.0880472,0.212539 0.0543976,0.0544016 0.129543,0.0880472 0.212535,0.0880472 0.0829961,0 0.158142,-0.0336457 0.212539,-0.0880472 0.0543937,-0.0543976 0.0880472,-0.129547 0.0880472,-0.212539 0,-0.0829921 -0.0336496,-0.158138 -0.0880472,-0.212539 -0.0543976,-0.0543976 -0.129543,-0.0880433 -0.212539,-0.0880433z"/>
  </g>
 </g>
 <rect class="fil5" width="6.82666" height="6.82666"/>
</svg>
